<svg width="141" height="62" viewBox="0 0 141 62" fill="none" xmlns="http://www.w3.org/2000/svg">
<path d="M70.064 21.8H66.384V18.6H77.264V21.8H73.584V41H70.064V21.8ZM78.9683 18.6H84.1843C85.9976 18.6 87.3203 19.0267 88.1523 19.88C88.9843 20.712 89.4003 22.0027 89.4003 23.752V25.128C89.4003 27.4533 88.6323 28.9253 87.0963 29.544V29.608C87.9496 29.864 88.5469 30.3867 88.8883 31.176C89.2509 31.9653 89.4323 33.0213 89.4323 34.344V38.28C89.4323 38.92 89.4536 39.4427 89.4963 39.848C89.5389 40.232 89.6456 40.616 89.8163 41H86.2323C86.1043 40.6373 86.0189 40.296 85.9763 39.976C85.9336 39.656 85.9123 39.08 85.9123 38.248V34.152C85.9123 33.128 85.7416 32.4133 85.4003 32.008C85.0803 31.6027 84.5149 31.4 83.7043 31.4H82.4883V41H78.9683V18.6ZM83.7683 28.2C84.4723 28.2 84.9949 28.0187 85.3363 27.656C85.6989 27.2933 85.8802 26.6853 85.8802 25.832V24.104C85.8802 23.2933 85.7309 22.7067 85.4323 22.344C85.1549 21.9813 84.7069 21.8 84.0883 21.8H82.4883V28.2H83.7683ZM94.5945 18.6H99.3625L103.011 41H99.4905L98.8505 36.552V36.616H94.8505L94.2105 41H90.9465L94.5945 18.6ZM98.4345 33.576L96.8665 22.504H96.8025L95.2665 33.576H98.4345ZM109.616 41.32C107.93 41.32 106.64 40.84 105.744 39.88C104.869 38.92 104.432 37.5653 104.432 35.816V23.784C104.432 22.0347 104.869 20.68 105.744 19.72C106.64 18.76 107.93 18.28 109.616 18.28C111.301 18.28 112.581 18.76 113.456 19.72C114.352 20.68 114.8 22.0347 114.8 23.784V26.152H111.472V23.56C111.472 22.1733 110.885 21.48 109.712 21.48C108.538 21.48 107.952 22.1733 107.952 23.56V36.072C107.952 37.4373 108.538 38.12 109.712 38.12C110.885 38.12 111.472 37.4373 111.472 36.072V32.648H114.8V35.816C114.8 37.5653 114.352 38.92 113.456 39.88C112.581 40.84 111.301 41.32 109.616 41.32ZM116.906 18.6H120.426V28.04L124.906 18.6H128.426L124.234 26.824L128.49 41H124.81L121.834 31.016L120.426 33.864V41H116.906V18.6ZM134.513 41.32C132.806 41.32 131.516 40.84 130.641 39.88C129.766 38.8987 129.329 37.5013 129.329 35.688V34.408H132.657V35.944C132.657 37.3947 133.265 38.12 134.481 38.12C135.078 38.12 135.526 37.9493 135.825 37.608C136.145 37.2453 136.305 36.6693 136.305 35.88C136.305 34.9413 136.092 34.12 135.665 33.416C135.238 32.6907 134.449 31.8267 133.297 30.824C131.846 29.544 130.833 28.392 130.257 27.368C129.681 26.3227 129.393 25.1493 129.393 23.848C129.393 22.0773 129.841 20.712 130.737 19.752C131.633 18.7707 132.934 18.28 134.641 18.28C136.326 18.28 137.596 18.7707 138.449 19.752C139.324 20.712 139.761 22.0987 139.761 23.912V24.84H136.433V23.688C136.433 22.92 136.284 22.3653 135.985 22.024C135.686 21.6613 135.249 21.48 134.673 21.48C133.5 21.48 132.913 22.1947 132.913 23.624C132.913 24.4347 133.126 25.192 133.553 25.896C134.001 26.6 134.801 27.4533 135.953 28.456C137.425 29.736 138.438 30.8987 138.993 31.944C139.548 32.9893 139.825 34.216 139.825 35.624C139.825 37.4587 139.366 38.8667 138.449 39.848C137.553 40.8293 136.241 41.32 134.513 41.32Z" fill="white"/>
<path fill-rule="evenodd" clip-rule="evenodd" d="M51.9209 49.2207C51.9209 52.9531 47.1658 55.9788 41.3011 55.9788C35.4357 55.9788 30.6812 52.9531 30.6812 49.2207C30.6812 45.4883 35.4357 42.4626 41.3011 42.4626C43.8682 42.4626 46.2232 43.0423 48.0592 44.0078V10.6035C48.0592 8.71079 50.4991 7.9485 51.5772 9.50387C53.0324 11.6044 54.6847 13.4535 56.8489 15.2405C60.0691 17.8998 62 22.0659 62 30.0159C62 31.0821 61.1358 31.9468 60.0691 31.9468C59.0029 31.9468 58.1382 31.0821 58.1382 30.0159C58.1382 24.7674 57.1593 21.1648 54.3211 18.1596C53.5227 17.3143 51.9211 16.0504 51.9211 16.0504L51.9209 49.2207ZM45.0723 6.89024C40.4665 3.80151 34.925 2 28.9633 2C12.9673 2 0 14.9673 0 30.9633C0 46.9593 12.9673 59.9265 28.9633 59.9265C31.8607 59.9265 34.6584 59.5009 37.2983 58.7095C34.9505 58.362 32.747 57.5404 31.0046 55.9828C30.3317 56.0372 29.6507 56.0647 28.9633 56.0647C15.0995 56.0647 3.86177 44.8264 3.86177 30.9632C3.86177 17.1 15.1001 5.86171 28.9633 5.86171C35.0953 5.86171 40.7134 8.06029 45.0723 11.7126V6.89024ZM19.3088 30.9628C19.3088 25.6309 23.6313 21.3084 28.9633 21.3084C34.2953 21.3084 38.6177 25.6309 38.6177 30.9628C38.6177 36.2948 34.2953 40.6173 28.9633 40.6173C23.6313 40.6173 19.3088 36.2948 19.3088 30.9628ZM21.2397 30.9628C21.2397 26.697 24.6974 23.2393 28.9633 23.2393C33.2291 23.2393 36.6868 26.697 36.6868 30.9628C36.6868 35.2287 33.2291 38.6864 28.9633 38.6864C24.6974 38.6864 21.2397 35.2287 21.2397 30.9628ZM28.9633 34.8246C31.0962 34.8246 32.825 33.0958 32.825 30.9628C32.825 28.8299 31.0962 27.1011 28.9633 27.1011C26.8303 27.1011 25.1015 28.8299 25.1015 30.9628C25.1015 33.0958 26.8303 34.8246 28.9633 34.8246Z" fill="white"/>
</svg>
